<svg id="visual" viewBox="0 0 960 300" width="960" height="300" xmlns="http://www.w3.org/2000/svg" xmlns:xlink="http://www.w3.org/1999/xlink" version="1.1"><rect x="0" y="0" width="960" height="300" fill="#E9EDED"></rect><path d="M0 186L20 196C40 206 80 226 120 224.8C160 223.7 200 201.3 240 198.8C280 196.3 320 213.7 360 211.8C400 210 440 189 480 179.8C520 170.7 560 173.3 600 186C640 198.7 680 221.3 720 225.3C760 229.3 800 214.7 840 204.3C880 194 920 188 940 185L960 182L960 0L940 0C920 0 880 0 840 0C800 0 760 0 720 0C680 0 640 0 600 0C560 0 520 0 480 0C440 0 400 0 360 0C320 0 280 0 240 0C200 0 160 0 120 0C80 0 40 0 20 0L0 0Z" fill="#00a676"></path><path d="M0 205L20 198C40 191 80 177 120 175.3C160 173.7 200 184.3 240 182.3C280 180.3 320 165.7 360 160.3C400 155 440 159 480 167.2C520 175.3 560 187.7 600 191C640 194.3 680 188.7 720 181.7C760 174.7 800 166.3 840 168.5C880 170.7 920 183.3 940 189.7L960 196L960 0L940 0C920 0 880 0 840 0C800 0 760 0 720 0C680 0 640 0 600 0C560 0 520 0 480 0C440 0 400 0 360 0C320 0 280 0 240 0C200 0 160 0 120 0C80 0 40 0 20 0L0 0Z" fill="#00553d"></path><path d="M0 131L20 135.2C40 139.3 80 147.7 120 151.7C160 155.7 200 155.3 240 146.3C280 137.3 320 119.7 360 115.2C400 110.7 440 119.3 480 127C520 134.7 560 141.3 600 139.8C640 138.3 680 128.7 720 121.8C760 115 800 111 840 112C880 113 920 119 940 122L960 125L960 0L940 0C920 0 880 0 840 0C800 0 760 0 720 0C680 0 640 0 600 0C560 0 520 0 480 0C440 0 400 0 360 0C320 0 280 0 240 0C200 0 160 0 120 0C80 0 40 0 20 0L0 0Z" fill="#00291d"></path><path d="M0 67L20 70.8C40 74.7 80 82.3 120 86.2C160 90 200 90 240 89.2C280 88.3 320 86.7 360 84.2C400 81.7 440 78.3 480 79.3C520 80.3 560 85.7 600 81.5C640 77.3 680 63.7 720 66.7C760 69.7 800 89.3 840 92.5C880 95.7 920 82.3 940 75.7L960 69L960 0L940 0C920 0 880 0 840 0C800 0 760 0 720 0C680 0 640 0 600 0C560 0 520 0 480 0C440 0 400 0 360 0C320 0 280 0 240 0C200 0 160 0 120 0C80 0 40 0 20 0L0 0Z" fill="#00553d"></path><path d="M0 50L20 48.2C40 46.3 80 42.7 120 38.5C160 34.3 200 29.7 240 26.7C280 23.7 320 22.3 360 21.2C400 20 440 19 480 25.8C520 32.7 560 47.3 600 54.7C640 62 680 62 720 55C760 48 800 34 840 30.2C880 26.3 920 32.7 940 35.8L960 39L960 0L940 0C920 0 880 0 840 0C800 0 760 0 720 0C680 0 640 0 600 0C560 0 520 0 480 0C440 0 400 0 360 0C320 0 280 0 240 0C200 0 160 0 120 0C80 0 40 0 20 0L0 0Z" fill="#00a676"></path></svg>