<svg id="visual" viewBox="0 0 960 540" width="960" height="540" xmlns="http://www.w3.org/2000/svg" xmlns:xlink="http://www.w3.org/1999/xlink" version="1.1"><rect x="0" y="0" width="960" height="540" fill="#E9EDED"></rect><path d="M0 132L22.8 114.5C45.7 97 91.3 62 137 52.5C182.7 43 228.3 59 274 77.2C319.7 95.3 365.3 115.7 411.2 106.3C457 97 503 58 548.8 51.8C594.7 45.7 640.3 72.3 686 85.3C731.7 98.3 777.3 97.7 823 85.5C868.7 73.3 914.3 49.7 937.2 37.8L960 26L960 0L937.2 0C914.3 0 868.7 0 823 0C777.3 0 731.7 0 686 0C640.3 0 594.7 0 548.8 0C503 0 457 0 411.2 0C365.3 0 319.7 0 274 0C228.3 0 182.7 0 137 0C91.3 0 45.7 0 22.8 0L0 0Z" fill="#00291D" stroke-linecap="round" stroke-linejoin="miter"></path></svg>